{"title":"Sexual Chronicles of a French Family (2012) Uncensored DVD RIP","uid":9236267,"size":1770471780,"categoryP":"video","categoryS":"movies","magnet":"?xt=urn:btih:19c69479e7454074719a6f892b339a718abc93e8&amp;dn=Sexual+Chronicles+of+a+French+Family+%282012%29+Uncensored+DVD+RIP&amp;tr=udp%3A%2F%2Ftracker.openbittorrent.com%3A80&amp;tr=udp%3A%2F%2Fopen.demonii.com%3A1337&amp;tr=udp%3A%2F%2Ftracker.coppersurfer.tk%3A6969&amp;tr=udp%3A%2F%2Fexodus.desync.com%3A6969","seeders":3,"leechers":0,"uploader":null,"files":-1,"time":1385180232,"description":"Format                                   : MPEG-4\nFormat profile                           : Base Media / Version 2\nCodec ID                                 : mp42\nFile size                                : 1.40 GiB\nDuration                                 : 1h 21mn\nOverall bit rate mode                    : Variable\nOverall bit rate                         : 2 463 Kbps\nEncoded date                             : UTC 2013-11-23 02:00:49\nTagged date                              : UTC 2013-11-23 02:51:02\nWriting application                      : HandBrake 0.9.9 2013052900\n\nVideo\nID                                       : 1\nFormat                                   : AVC\nFormat/Info                              : Advanced Video Codec\nFormat profile                           : &lt;a class=&quot;__cf_email__&quot; href=&quot;/cdn-cgi/l/email-protection&quot; data-cfemail=&quot;773f1e101f373b425945&quot;&gt;[email&amp;#160;protected]&lt;/a&gt;&lt;script cf-hash='f9e31' type=&quot;text/javascript&quot;&gt;\n/* &lt;![CDATA[ */!function(){try{var t=&quot;currentScript&quot;in document?document.currentScript:function(){for(var t=document.getElementsByTagName(&quot;script&quot;),e=t.length;e--;)if(t[e].getAttribute(&quot;cf-hash&quot;))return t[e]}();if(t&amp;&amp;t.previousSibling){var e,r,n,i,c=t.previousSibling,a=c.getAttribute(&quot;data-cfemail&quot;);if(a){for(e=&quot;&quot;,r=parseInt(a.substr(0,2),16),n=2;a.length-n;n+=2)i=parseInt(a.substr(n,2),16)^r,e+=String.fromCharCode(i);e=document.createTextNode(e),c.parentNode.replaceChild(e,c)}}}catch(u){}}();/* ]]&gt; */&lt;/script&gt;\nFormat settings, CABAC                   : Yes\nFormat settings, ReFrames                : 4 frames\nCodec ID                                 : avc1\nCodec ID/Info                            : Advanced Video Coding\nDuration                                 : 1h 21mn\nBit rate                                 : 2 232 Kbps\nWidth                                    : 720 pixels\nHeight                                   : 576 pixels\nDisplay aspect ratio                     : 16:9\nFrame rate mode                          : Variable\nFrame rate                               : 25.000 fps\nMinimum frame rate                       : 16.667 fps\nMaximum frame rate                       : 25.000 fps\nStandard                                 : PAL\nColor space                              : YUV\nChroma subsampling                       : 4:2:0\nBit depth                                : 8 bits\nScan type                                : Progressive\nBits/(Pixel*Frame)                       : 0.215\nStream size                              : 1.27 GiB (91%)\nWriting library                          : x264 core 130 r2273 b3065e6\nEncoding settings                        : cabac=1 // deblock=1:0:0 / \nEncoded date                             : UTC 2013-11-23 02:00:49\nTagged date                              : UTC 2013-11-23 02:51:02\nColor primaries                          : BT.601 PAL\nTransfer characteristics                 : BT.709\nMatrix coefficients                      : BT.601\n\nAudio #1\nID                                       : 2\nFormat                                   : AAC\nFormat/Info                              : Advanced Audio Codec\nFormat profile                           : LC\nCodec ID                                 : 40\nDuration                                 : 1h 21mn\nBit rate mode                            : Variable\nBit rate                                 : 112 Kbps\nMaximum bit rate                         : 173 Kbps\nChannel(s)                               : 2 channels\nChannel positions                        : Front: L R\nSampling rate                            : 48.0 KHz\nCompression mode                         : Lossy\nStream size                              : 65.4 MiB (5%)\nLanguage                                 : French\nEncoded date                             : UTC 2013-11-23 02:00:49\nTagged date                              : UTC 2013-11-23 02:51:01\n\n\n\nAUDIO FRENCH,GERMAN\n\n\nSUBTITLE ENGLISH,GERMAN\n\n\nStoryline\n\nThree generations of a French family open up about their sexual experiences and desires after young Romain is caught masturbating in his biology class.\n\n &lt;a href=&quot;\nhttp://postimg.org/image/o7bp4jdjj/&quot; rel=&quot;nofollow&quot; target=&quot;_NEW&quot;&gt;\nhttp://postimg.org/image/o7bp4jdjj/&lt;/a&gt;\n\n &lt;a href=&quot;\nhttp://postimg.org/image/9cn3qd3yn/&quot; rel=&quot;nofollow&quot; target=&quot;_NEW&quot;&gt;\nhttp://postimg.org/image/9cn3qd3yn/&lt;/a&gt;\n\n &lt;a href=&quot;\nhttp://postimg.org/image/brezask7j/&quot; rel=&quot;nofollow&quot; target=&quot;_NEW&quot;&gt;\nhttp://postimg.org/image/brezask7j/&lt;/a&gt;\n\n\nRuntime 1 Hour 21 Minutes 39 Seconds\n\n\n\nBonus: Interview With Cast And Crew","torrent":{"xt":"urn:btih:19c69479e7454074719a6f892b339a718abc93e8","amp;dn":"Sexual+Chronicles+of+a+French+Family+%282012%29+Uncensored+DVD+RIP","amp;tr":["udp%3A%2F%2Ftracker.openbittorrent.com%3A80","udp%3A%2F%2Fopen.demonii.com%3A1337","udp%3A%2F%2Ftracker.coppersurfer.tk%3A6969","udp%3A%2F%2Fexodus.desync.com%3A6969"],"infoHash":"19c69479e7454074719a6f892b339a718abc93e8","infoHashBuffer":{"type":"Buffer","data":[25,198,148,121,231,69,64,116,113,154,111,137,43,51,154,113,138,188,147,232]},"announce":[],"urlList":[]}}